<svg width="243" height="25" viewBox="0 0 243 25" fill="none" xmlns="http://www.w3.org/2000/svg">
<line y1="24.5" x2="98" y2="24.5" stroke="#B09E80"/>
<line x1="158" y1="24.5" x2="243" y2="24.5" stroke="#B09E80"/>
<path d="M150.16 6.85971C150.107 6.69669 149.961 6.58717 149.797 6.58717H146.227L147.303 4.60371C147.408 4.40991 147.344 4.16342 147.159 4.05309C146.974 3.94256 146.74 4.01039 146.635 4.2041L145.342 6.58717H134.203C134.039 6.58717 133.893 6.69669 133.839 6.85971C133.786 7.02272 133.837 7.2034 133.967 7.30939L141.615 13.5663V22.6721L137.399 24.2148C137.222 24.2797 137.116 24.4693 137.147 24.6635C137.178 24.8577 137.338 24.9998 137.526 24.9998H146.473C146.474 24.9999 146.475 24.9999 146.475 24.9998C146.688 24.9998 146.86 24.819 146.86 24.596C146.86 24.4109 146.741 24.2549 146.579 24.2071L142.384 22.6721V13.5663L150.033 7.30939C150.163 7.2034 150.214 7.02272 150.16 6.85971ZM136.902 8.68741L135.322 7.39468H144.904L144.203 8.68751L136.902 8.68741ZM147.097 8.68741H145.088L145.789 7.39458H148.677L147.097 8.68741Z" fill="#B09E80"/>
<path d="M114.306 21.8608V13.3076C118.217 12.8466 121 9.47608 121 5.6312C121 4.17773 120.608 2.36992 119.928 0.617377C119.784 0.244659 119.433 0 119.043 0H107.951C107.561 0 107.21 0.244659 107.065 0.617427C106.452 2.19981 105.975 4.06507 106.001 5.78626C106.001 5.78788 106.001 5.78949 106.001 5.79106C106.077 9.58309 108.837 12.865 112.687 13.3076V21.8608C110.138 22.0755 108.184 23.2418 108.184 23.8281C108.184 24.4759 110.562 25 113.497 25C116.432 25 118.81 24.4759 118.81 23.8281C118.81 23.2418 116.856 22.0753 114.306 21.8608ZM108.409 1.66678H118.585C119.093 3.09299 119.381 4.51718 119.381 5.63125C119.381 5.90175 119.357 6.1668 119.324 6.42837C118.817 6.29849 118.293 6.28133 117.73 6.48758C116.26 7.02631 115.307 7.37137 113.811 6.76767C112.324 6.16695 111.384 3.43825 109.601 3.64586C108.892 3.72793 108.284 3.9678 107.735 4.30099C107.863 3.47419 108.085 2.57571 108.409 1.66678Z" fill="#B09E80"/>
<g clip-path="url(#clip0)">
<path d="M130.5 23.75H129.875C129.186 23.75 128.625 23.1893 128.625 22.5V18.5969C128.625 18.1046 128.896 17.657 129.332 17.4287C129.391 17.3975 129.444 17.3578 129.488 17.3122C131.125 16.1428 131.75 13.4648 131.75 11.4062C131.75 9.47605 131.448 5.73289 131.435 5.57449C131.409 5.24996 131.138 5 130.812 5H125.188C124.862 5 124.591 5.24996 124.565 5.57449C124.552 5.73289 124.25 9.47605 124.25 11.4062C124.25 13.4751 124.88 16.1462 126.512 17.3122C126.556 17.3578 126.609 17.3975 126.668 17.4287C127.104 17.657 127.375 18.1046 127.375 18.5969V22.5C127.375 23.1893 126.814 23.75 126.125 23.75H125.5C125.155 23.75 124.875 24.0298 124.875 24.375C124.875 24.7202 125.155 25 125.5 25H130.5C130.845 25 131.125 24.7202 131.125 24.375C131.125 24.0298 130.845 23.75 130.5 23.75V23.75ZM125.5 11.4062C125.5 9.96676 125.68 7.3934 125.766 6.25H130.234C130.32 7.3934 130.5 9.96676 130.5 11.4062C130.5 12.8484 130.202 14.1947 129.66 15.197C127.928 18.4002 125.5 15.4693 125.5 11.4062V11.4062Z" fill="#B09E80"/>
</g>
<defs>
<clipPath id="clip0">
<rect width="20" height="20" fill="white" transform="translate(118 5)"/>
</clipPath>
</defs>
</svg>
