<svg width="200" height="200" viewBox="0 0 200 200" fill="none" xmlns="http://www.w3.org/2000/svg">
<g clip-path="url(#clip0)">
<rect width="200" height="200" fill="white"/>
<path d="M199.298 74.6474C199.059 73.9191 198.407 73.4298 197.673 73.4298H181.724L186.531 64.5682C187.001 63.7023 186.713 62.6011 185.889 62.1082C185.064 61.6144 184.016 61.9174 183.546 62.7828L177.771 73.4298H128.004C127.271 73.4298 126.618 73.9191 126.379 74.6474C126.141 75.3757 126.37 76.1829 126.948 76.6565L161.12 104.611V145.293L142.285 152.185C141.494 152.475 141.017 153.322 141.157 154.19C141.297 155.058 142.013 155.693 142.851 155.693H182.825C182.828 155.693 182.832 155.693 182.834 155.693C183.783 155.693 184.552 154.885 184.552 153.889C184.552 153.062 184.022 152.364 183.299 152.151L164.556 145.293V104.611L198.728 76.6565C199.308 76.1829 199.536 75.3757 199.298 74.6474ZM140.065 82.8131L133.005 77.0375H175.813L172.681 82.8136L140.065 82.8131ZM185.612 82.8131H176.635L179.767 77.0371H192.673L185.612 82.8131Z" fill="#B09E80"/>
<path d="M39.1105 141.669V103.455C56.584 101.395 69.0161 86.3367 69.0161 69.1587C69.0161 62.665 67.2642 54.5882 64.2278 46.7583C63.5828 45.0931 62.0145 44 60.2735 44H10.7145C8.97244 44 7.40431 45.0931 6.75993 46.7585C4.01851 53.8282 1.88861 62.1617 2.00451 69.8515C2.00451 69.8587 2.00649 69.866 2.00649 69.8729C2.34391 86.8148 14.6737 101.477 31.8753 103.455V141.669C20.4865 142.628 11.7566 147.838 11.7566 150.458C11.7566 153.352 22.3833 155.694 35.4944 155.694C48.6054 155.694 59.2332 153.352 59.2332 150.458C59.2332 147.838 50.5004 142.627 39.1105 141.669ZM12.7614 51.4467H58.2257C60.4959 57.8187 61.7811 64.1816 61.7811 69.159C61.7811 70.3675 61.6768 71.5517 61.527 72.7203C59.2649 72.14 56.9203 72.0634 54.4052 72.9848C47.8372 75.3918 43.5791 76.9334 36.8969 74.2362C30.2526 71.5524 26.0539 59.3612 18.0865 60.2888C14.9211 60.6554 12.2053 61.7271 9.75376 63.2157C10.3225 59.5218 11.3151 55.5076 12.7614 51.4467Z" fill="#B09E80"/>
<g clip-path="url(#clip1)">
<path d="M111.46 150.109H108.667C105.588 150.109 103.083 147.604 103.083 144.524V127.086C103.083 124.887 104.292 122.887 106.24 121.867C106.506 121.727 106.74 121.55 106.939 121.346C114.253 116.122 117.044 104.157 117.044 94.9602C117.044 86.3366 115.696 69.6131 115.639 68.9054C115.521 67.4555 114.31 66.3387 112.856 66.3387H87.7246C86.27 66.3387 85.059 67.4555 84.9414 68.9054C84.8841 69.6131 83.5361 86.3366 83.5361 94.9602C83.5361 104.203 86.3487 116.137 93.6413 121.346C93.8409 121.55 94.0741 121.727 94.3404 121.867C96.2879 122.887 97.4978 124.887 97.4978 127.086V144.524C97.4978 147.604 94.9926 150.109 91.9131 150.109H89.1208C87.5787 150.109 86.3285 151.359 86.3285 152.901C86.3285 154.443 87.5787 155.694 89.1208 155.694H111.46C113.002 155.694 114.252 154.443 114.252 152.901C114.252 151.359 113.002 150.109 111.46 150.109V150.109ZM89.1208 94.9602C89.1208 88.5289 89.9262 77.0318 90.3096 71.9234H110.271C110.654 77.0318 111.46 88.5289 111.46 94.9602C111.46 101.404 110.126 107.418 107.706 111.896C99.9701 126.207 89.1208 113.113 89.1208 94.9602V94.9602Z" fill="#B09E80"/>
</g>
</g>
<defs>
<clipPath id="clip0">
<rect width="200" height="200" fill="white"/>
</clipPath>
<clipPath id="clip1">
<rect width="89.3548" height="89.3548" fill="white" transform="translate(55.6128 66.3387)"/>
</clipPath>
</defs>
</svg>
